<svg width="800" height="800" viewBox="0 0 800 800" xmlns="http://www.w3.org/2000/svg">
  <defs>
    <linearGradient id="bg5" x1="0%" y1="0%" x2="100%" y2="100%">
      <stop offset="0%" style="stop-color:#a8edea;stop-opacity:1" />
      <stop offset="100%" style="stop-color:#fed6e3;stop-opacity:1" />
    </linearGradient>
    <radialGradient id="key" cx="50%" cy="50%" r="50%">
      <stop offset="0%" style="stop-color:#ffd700;stop-opacity:1" />
      <stop offset="100%" style="stop-color:#ffb347;stop-opacity:1" />
    </radialGradient>
  </defs>
  <rect width="800" height="800" fill="url(#bg5)" />
  
  <!-- Anahtarlık halkası -->
  <circle cx="300" cy="350" r="60" fill="none" stroke="url(#key)" stroke-width="12" />
  <circle cx="300" cy="350" r="45" fill="none" stroke="rgba(255,255,255,0.3)" stroke-width="2" />
  
  <!-- Anahtar gövdesi -->
  <rect x="360" y="340" width="200" height="20" rx="10" fill="url(#key)" />
  
  <!-- Anahtar dişleri -->
  <rect x="550" y="330" width="15" height="15" fill="url(#key)" />
  <rect x="550" y="355" width="20" height="15" fill="url(#key)" />
  <rect x="540" y="370" width="25" height="10" fill="url(#key)" />
  
  <!-- Dekoratif kalp -->
  <path d="M 400 450 C 400 430, 380 430, 380 450 C 380 430, 360 430, 360 450 C 360 470, 380 490, 400 510 C 420 490, 440 470, 440 450 C 440 430, 420 430, 420 450 C 420 430, 400 430, 400 450 Z" 
        fill="#e91e63" stroke="#ad1457" stroke-width="2" />
  
  <!-- Yıldız süsü -->
  <path d="M 500 480 L 505 495 L 520 495 L 508 505 L 513 520 L 500 510 L 487 520 L 492 505 L 480 495 L 495 495 Z" 
        fill="#9c27b0" stroke="#7b1fa2" stroke-width="1" />
  
  <!-- İsim etiketi -->
  <rect x="250" y="550" width="300" height="80" rx="15" fill="rgba(255,255,255,0.8)" stroke="#333" stroke-width="2" />
  <text x="400" y="580" font-family="Arial, sans-serif" font-size="20" font-weight="bold" fill="#333" text-anchor="middle">
    Özel Tasarım
  </text>
  <text x="400" y="610" font-family="Arial, sans-serif" font-size="16" fill="#666" text-anchor="middle">
    Anahtarlık
  </text>
  
  <!-- Gölge efekti -->
  <ellipse cx="410" cy="700" rx="200" ry="30" fill="rgba(0,0,0,0.1)" />
  
  <text x="400" y="750" font-family="Arial, sans-serif" font-size="28" font-weight="bold" fill="#2c5aa0" text-anchor="middle">
    Kişisel Anahtarlık
  </text>
  <text x="750" y="780" font-family="Arial, sans-serif" font-size="14" fill="rgba(0,0,0,0.5)" text-anchor="end">
    800 x 800px
  </text>
</svg>
