<svg width="800" height="800" viewBox="0 0 800 800" xmlns="http://www.w3.org/2000/svg">
  <defs>
    <linearGradient id="bg4" x1="0%" y1="0%" x2="100%" y2="100%">
      <stop offset="0%" style="stop-color:#ffecd2;stop-opacity:1" />
      <stop offset="100%" style="stop-color:#fcb69f;stop-opacity:1" />
    </linearGradient>
    <linearGradient id="mold" x1="0%" y1="0%" x2="100%" y2="100%">
      <stop offset="0%" style="stop-color:#e0e0e0;stop-opacity:1" />
      <stop offset="100%" style="stop-color:#bdbdbd;stop-opacity:1" />
    </linearGradient>
  </defs>
  <rect width="800" height="800" fill="url(#bg4)" />
  
  <!-- Ana kalıp -->
  <ellipse cx="400" cy="500" rx="120" ry="100" fill="url(#mold)" stroke="#757575" stroke-width="3" />
  
  <!-- Yıldız şekli kalıp -->
  <path d="M 400 350 L 415 385 L 450 385 L 422 407 L 435 442 L 400 420 L 365 442 L 378 407 L 350 385 L 385 385 Z" 
        fill="#ffeb3b" stroke="#f57f17" stroke-width="2" />
  
  <!-- Kalp şekli kalıp -->
  <path d="M 300 450 C 300 430, 280 430, 280 450 C 280 430, 260 430, 260 450 C 260 470, 280 490, 300 510 C 320 490, 340 470, 340 450 C 340 430, 320 430, 320 450 C 320 430, 300 430, 300 450 Z" 
        fill="#e91e63" stroke="#ad1457" stroke-width="2" />
  
  <!-- Çiçek şekli kalıp -->
  <circle cx="500" cy="450" r="15" fill="#9c27b0" />
  <circle cx="485" cy="435" r="12" fill="#9c27b0" />
  <circle cx="515" cy="435" r="12" fill="#9c27b0" />
  <circle cx="485" cy="465" r="12" fill="#9c27b0" />
  <circle cx="515" cy="465" r="12" fill="#9c27b0" />
  
  <!-- Düğme şekli kalıp -->
  <circle cx="400" cy="550" r="25" fill="#2196f3" stroke="#0d47a1" stroke-width="2" />
  <circle cx="400" cy="540" r="8" fill="none" stroke="#0d47a1" stroke-width="1" />
  <circle cx="400" cy="560" r="8" fill="none" stroke="#0d47a1" stroke-width="1" />
  
  <!-- Dekoratif çerçeve -->
  <rect x="150" y="250" width="500" height="400" fill="none" stroke="rgba(255,255,255,0.4)" stroke-width="3" rx="15" />
  
  <text x="400" y="700" font-family="Arial, sans-serif" font-size="28" font-weight="bold" fill="#8d4004" text-anchor="middle">
    Kurabiye Kalıp Seti
  </text>
  <text x="750" y="780" font-family="Arial, sans-serif" font-size="14" fill="rgba(0,0,0,0.5)" text-anchor="end">
    800 x 800px
  </text>
</svg>
