<svg width="400" height="300" viewBox="0 0 400 300" xmlns="http://www.w3.org/2000/svg">
  <defs>
    <linearGradient id="bg7" x1="0%" y1="0%" x2="100%" y2="100%">
      <stop offset="0%" style="stop-color:#ffecd2;stop-opacity:1" />
      <stop offset="100%" style="stop-color:#fcb69f;stop-opacity:1" />
    </linearGradient>
  </defs>
  <rect width="400" height="300" fill="url(#bg7)" />
  
  <!-- Tencere -->
  <ellipse cx="200" cy="180" rx="50" ry="15" fill="#666" />
  <rect x="150" y="140" width="100" height="40" rx="10" fill="#888" stroke="#555" stroke-width="2" />
  <circle cx="130" cy="160" r="8" fill="#333" />
  
  <!-- Kaşık ve çatal -->
  <ellipse cx="120" cy="100" rx="3" ry="20" fill="#C0C0C0" transform="rotate(-30 120 100)" />
  <rect x="115" y="80" width="10" height="15" rx="5" fill="#C0C0C0" transform="rotate(-30 120 85)" />
  
  <rect x="280" y="90" width="6" height="40" rx="3" fill="#C0C0C0" transform="rotate(20 283 110)" />
  <path d="M 285 85 L 290 85 L 292 95 L 288 95 Z" fill="#C0C0C0" transform="rotate(20 288 90)" />
  
  <!-- Şef şapkası -->
  <ellipse cx="320" cy="120" rx="25" ry="10" fill="white" />
  <rect x="295" y="90" width="50" height="30" rx="25" fill="white" stroke="#ddd" stroke-width="1" />
  
  <text x="200" y="250" font-family="Arial, sans-serif" font-size="28" font-weight="bold" fill="#8B4513" text-anchor="middle">
    Mutfak
  </text>
  <text x="380" y="290" font-family="Arial, sans-serif" font-size="10" fill="rgba(0,0,0,0.5)" text-anchor="end">
    400x300
  </text>
</svg>
